<?xml version="1.0" encoding="UTF-8"?>
<svg version="1.1" xmlns="http://www.w3.org/2000/svg" width="249" height="250">
<path d="M0 0 C4.74799018 4.28160145 8.65511743 8.9912384 11 15 C11 15.66 11 16.32 11 17 C14.96 17 18.92 17 23 17 C23.020625 16.195625 23.04125 15.39125 23.0625 14.5625 C25.09849512 6.82571855 30.92688606 1.30551107 37.61328125 -2.78125 C45.31083355 -6.711915 53.26587055 -8.45407008 61.7265625 -6.30859375 C71.97098405 -2.93611889 80.38279809 3.16644705 85.48046875 12.796875 C89.68597514 22.0796174 90.18111522 28.94563753 86.97265625 38.5859375 C83.55352624 47.07197102 77.34910742 54.94471925 69 59 C68.34 59 67.68 59 67 59 C66.70816433 64.21232084 66.76853542 68.90267193 68 74 C70.49434315 76.66607073 73.00011472 78.23812099 76.12890625 80.1015625 C82.48268129 84.30283416 86.78606638 91.72330468 88.484375 99.10546875 C89.73899836 108.93950187 87.35173898 117.67961192 82 126 C76.14075118 133.45129416 68.44854852 138.53384592 59 140 C49.20376179 140.85614183 40.60804856 139.01254853 32.890625 132.75390625 C29.18555292 129.31676294 25.2783401 125.5566802 23 121 C19.95418731 120.53045739 19.95418731 120.53045739 16.4375 120.375 C15.23996094 120.30023438 14.04242188 120.22546875 12.80859375 120.1484375 C11.41833984 120.07496094 11.41833984 120.07496094 10 120 C9.7215625 120.75410156 9.443125 121.50820312 9.15625 122.28515625 C5.83624384 130.08044099 -0.63120959 134.30379583 -8 138 C-16.9294048 141.57176192 -26.17293289 140.72226323 -35.06640625 137.4609375 C-43.61254974 133.20493528 -49.56604025 126.46221627 -52.89453125 117.625 C-56.02985519 108.23334473 -55.59641297 100.20220969 -52 91 C-48.18235514 83.80958489 -43.31721406 78.66605837 -36 75 C-35.34 75 -34.68 75 -34 75 C-33.38350428 65.47866377 -33.38350428 65.47866377 -36.6015625 57.0703125 C-38.61684921 55.89865916 -38.61684921 55.89865916 -40.8046875 54.984375 C-47.40302651 52.02568918 -51.49136974 45.54132083 -54 39 C-56.4278325 31.45753371 -56.09428564 21.50528686 -53.1640625 14.15234375 C-47.87143612 4.3663131 -40.28633057 -2.52638212 -29.6875 -5.9375 C-18.75915185 -8.46410974 -9.24868148 -6.26144868 0 0 Z M41.125 14.9375 C36.5641165 21.51053799 37 22.97029308 37 32 C29.08 32 21.16 32 13 32 C11.948125 34.7225 11.948125 34.7225 10.875 37.5 C6.78195854 47.2181152 2.22396258 52.79673906 -7 58 C-10.96 59.32 -14.92 60.64 -19 62 C-19.33 70.58 -19.66 79.16 -20 88 C-24.95 88.99 -24.95 88.99 -30 90 C-33.97306447 93.04319832 -36.31300463 96.29417082 -38 101 C-38.71551972 107.00840528 -38.46430129 111.86327739 -35 117 C-30.71129318 121.96587106 -27.64561064 123.7866443 -21.125 124.3125 C-16.31762836 124.15859168 -12.14569147 122.97539849 -8.5234375 119.640625 C-4.00076436 114.5096391 -2.53755335 109.99004528 -2.671875 103.28515625 C-3.33134907 98.69239041 -5.74259085 95.25740915 -9 92 C-9.30675232 89.10032243 -9.51173371 86.28216822 -9.625 83.375 C-9.66367188 82.57320313 -9.70234375 81.77140625 -9.7421875 80.9453125 C-9.83653931 78.96392444 -9.91936215 76.98199355 -10 75 C-0.6060109 77.96652287 4.86557412 82.59517766 9.77734375 91.1875 C11.84759465 95.9497385 12.48810025 100.86335077 13 106 C15.94131891 106.98043964 17.82501665 107.11621202 20.88671875 107.09765625 C21.82451172 107.09443359 22.76230469 107.09121094 23.72851562 107.08789062 C24.70498047 107.07951172 25.68144531 107.07113281 26.6875 107.0625 C27.67556641 107.05798828 28.66363281 107.05347656 29.68164062 107.04882812 C32.12115474 107.03704303 34.56054689 107.02059011 37 107 C37.14888672 108.59908203 37.14888672 108.59908203 37.30078125 110.23046875 C38.30552576 115.64710815 40.95563844 118.4161765 45 122 C49.90032088 124.66321787 54.70020934 124.26493261 60 123 C65.24024643 121.01692635 68.56155422 118.06446431 71 113 C72.38925822 107.28966965 72.48097526 102.17617696 70.08203125 96.75390625 C67.33772158 92.3055487 63.03882098 89.31969121 58 88 C52.32560724 87.54965137 48.92325975 87.86701652 44 91 C43.4740625 91.680625 42.948125 92.36125 42.40625 93.0625 C38.7825122 95.98031485 35.27786578 95.67217731 30.75 95.75 C29.90953125 95.77964844 29.0690625 95.80929688 28.203125 95.83984375 C26.1359285 95.91031636 24.06795967 95.95744939 22 96 C22.6310773 94.71919565 23.26430606 93.43945123 23.8984375 92.16015625 C24.25083496 91.44738525 24.60323242 90.73461426 24.96630859 90.00024414 C28.70140857 82.77264043 35.49791081 77.61802701 43.09765625 74.88671875 C45.72219216 74.17216768 48.33304399 73.53237715 51 73 C51.185625 71.7625 51.37125 70.525 51.5625 69.25 C51.66691406 68.55390625 51.77132812 67.8578125 51.87890625 67.140625 C52.01656289 64.70721076 52.0488088 63.21935433 51 61 C48.49353462 59.84468532 48.49353462 59.84468532 45.4375 59.125 C35.85687106 56.19285022 30.51575764 51.23185041 25 43 C28.57312995 41.80895668 31.54553322 41.79471177 35.3125 41.75 C37.25576172 41.71132812 37.25576172 41.71132812 39.23828125 41.671875 C43.24636099 42.02148943 45.48455746 43.14396144 49 45 C54.23877075 45.81671847 58.65765278 45.65897045 63.4375 43.3125 C67.83039525 39.3481799 70.77806925 35.88748453 72 30 C72.17551051 24.11064723 71.43874283 19.12380295 67.65625 14.47265625 C63.89704795 11.1301582 59.35066444 9.40133295 54.4375 8.5625 C49.18727563 9.50484796 44.68574315 10.77627649 41.125 14.9375 Z M-32.85546875 13.40625 C-37.14793033 17.90008632 -38.84876102 22.81810675 -39 29 C-38.19113551 35.28892143 -35.63447165 39.02541712 -30.71875 42.90625 C-25.99230154 45.91398993 -20.38671075 45.55564925 -15 45 C-9.73907218 42.41736271 -6.46468506 38.78290162 -3.75 33.625 C-1.96735841 27.38575443 -2.96667345 22.64826323 -6 17 C-9.81336873 12.06505223 -14.10791783 10.42382339 -20 9 C-24.59422692 9 -29.20864936 10.64234478 -32.85546875 13.40625 Z " fill="#859FE5" transform="translate(108,56)"/>
<path d="M0 0 C0.67578125 1.7578125 0.67578125 1.7578125 1 4 C-3.30895207 11.68455711 -11.52268502 16.20907401 -19.4375 19.375 C-24.31213677 20.23019943 -29.06514753 20.16062811 -34 20 C-31.55445865 17.55445865 -30.7940651 17.76157385 -27.4375 17.625 C-21.32299277 17.13690436 -15.41932442 15.41932442 -11 11 C-9.68 11 -8.36 11 -7 11 C-6.731875 10.236875 -6.46375 9.47375 -6.1875 8.6875 C-5.03078648 6.06967466 -4.06505276 4.89296503 -2 3 C-1.34 2.01 -0.68 1.02 0 0 Z " fill="#93A5E1" transform="translate(116,176)"/>
<path d="M0 0 C0.66 0.99 1.32 1.98 2 3 C-2.00771862 9.78954684 -6.60782961 15.30814694 -13 20 C-13.66 20 -14.32 20 -15 20 C-13.96501431 16.89504293 -13.21350711 16.21350711 -11 14 C-10.690625 13.319375 -10.38125 12.63875 -10.0625 11.9375 C-8.74061639 9.52700637 -7.45476337 9.10860281 -5 8 C-4.67 7.34 -4.34 6.68 -4 6 C-3.34 5.67 -2.68 5.34 -2 5 C-1.27840576 3.35636866 -0.60648579 1.68949614 0 0 Z " fill="#91A6E3" transform="translate(192,172)"/>
<path d="M0 0 C0 0.66 0 1.32 0 2 C0.99 2.33 1.98 2.66 3 3 C2.360625 3.12375 1.72125 3.2475 1.0625 3.375 C0.381875 3.58125 -0.29875 3.7875 -1 4 C-1.33 4.66 -1.66 5.32 -2 6 C-3.32 5.34 -4.64 4.68 -6 4 C-6 3.34 -6 2.68 -6 2 C-7.12148437 2.30744141 -7.12148437 2.30744141 -8.265625 2.62109375 C-9.25046875 2.89050781 -10.2353125 3.15992188 -11.25 3.4375 C-12.22453125 3.70433594 -13.1990625 3.97117188 -14.203125 4.24609375 C-16.46372653 4.85544584 -18.72622009 5.44238255 -21 6 C-21 5.34 -21 4.68 -21 4 C-13.73420371 0.72326834 -7.95636028 -0.15600706 0 0 Z " fill="#90A6DB" transform="translate(167,49)"/>
<path d="M0 0 C8.18728239 3.57472893 15.17742313 7.60135755 19 16 C18.01 16 17.02 16 16 16 C15.7525 15.195625 15.505 14.39125 15.25 13.5625 C14.8375 12.716875 14.425 11.87125 14 11 C12.67696283 10.6278958 11.34262065 10.29369827 10 10 C9.690625 9.360625 9.38125 8.72125 9.0625 8.0625 C7.58566935 5.19571109 6.01072158 4.98023493 3 4 C1.33333333 3.33333333 -0.33333333 2.66666667 -2 2 C-1.34 1.34 -0.68 0.68 0 0 Z " fill="#94A7E1" transform="translate(173,51)"/>
<path d="M0 0 C2.31 0 4.62 0 7 0 C5.625 1.5 5.625 1.5 4 3 C3.34 3 2.68 3 2 3 C2.14058476 5.45873768 2.28722999 7.91685175 2.4375 10.375 C2.47681641 11.07367188 2.51613281 11.77234375 2.55664062 12.4921875 C2.74280134 16.37360492 2.74280134 16.37360492 4 20 C2.68 20 1.36 20 0 20 C0 15.71 0 11.42 0 7 C-0.66 6.67 -1.32 6.34 -2 6 C-1.34 6 -0.68 6 0 6 C0 4.02 0 2.04 0 0 Z " fill="#8A9ED4" transform="translate(173,112)"/>
<path d="M0 0 C0.639375 0.515625 1.27875 1.03125 1.9375 1.5625 C1.9375 2.2225 1.9375 2.8825 1.9375 3.5625 C1.11958984 3.22025391 1.11958984 3.22025391 0.28515625 2.87109375 C-6.97123226 0.10498326 -12.47495086 -0.01098647 -19.625 3.125 C-20.429375 3.599375 -21.23375 4.07375 -22.0625 4.5625 C-22.3925 3.9025 -22.7225 3.2425 -23.0625 2.5625 C-16.91850805 -3.58149195 -7.4593613 -3.50133286 0 0 Z " fill="#92A2E4" transform="translate(172.0625,65.4375)"/>
<path d="M0 0 C-3.92106552 3.92106552 -9.80174261 4.13742356 -15.125 4.25 C-19.07359457 4.17687788 -22.32693635 3.54655312 -26 2 C-21.54824025 0.51608008 -17.20164026 1.03532582 -12.54296875 1.16015625 C-7.87978582 0.94936187 -4.44381942 -1.48127314 0 0 Z " fill="#95A8E2" transform="translate(177,192)"/>
<path d="M0 0 C2.19080996 2.19080996 2.90085477 3.92504946 4.125 6.75 C6.7101933 12.10670684 9.9831755 14.93762078 15 18 C14.67 18.99 14.34 19.98 14 21 C2.77100194 11.54964094 2.77100194 11.54964094 0 5 C-0.25 2.0625 -0.25 2.0625 0 0 Z " fill="#96AAE5" transform="translate(56,171)"/>
<path d="M0 0 C0.33 0.66 0.66 1.32 1 2 C0.67 2.99 0.34 3.98 0 5 C-0.29098034 10.04936467 -0.31036161 15.08614397 1 20 C0.34 19.67 -0.32 19.34 -1 19 C-1 18.34 -1 17.68 -1 17 C-1.99 16.67 -2.98 16.34 -4 16 C-4 14.02 -4 12.04 -4 10 C-3.34 9.67 -2.68 9.34 -2 9 C-2.99 9 -3.98 9 -5 9 C-4 6 -4 6 -3 4 C-2.34 4 -1.68 4 -1 4 C-0.67 2.68 -0.34 1.36 0 0 Z " fill="#8FA2DC" transform="translate(71,152)"/>
<path d="M0 0 C0.66 0 1.32 0 2 0 C3.15904779 2.83625813 3.02282362 3.93684892 1.9609375 6.875 C1.43757813 7.90625 0.91421875 8.9375 0.375 10 C-0.13289063 11.03125 -0.64078125 12.0625 -1.1640625 13.125 C-3.10611384 16.16616976 -5.07485696 17.92344794 -8 20 C-8.33 19.34 -8.66 18.68 -9 18 C-8.443125 17.54625 -7.88625 17.0925 -7.3125 16.625 C-3.12315031 11.86952197 0 6.38801561 0 0 Z " fill="#94AAE5" transform="translate(117,89)"/>
<path d="M0 0 C0.66 0.33 1.32 0.66 2 1 C-2.75 6.875 -2.75 6.875 -5 8 C-6.13350534 10.01669827 -6.13350534 10.01669827 -7 12 C-7.66 12 -8.32 12 -9 12 C-9.33 13.98 -9.66 15.96 -10 18 C-10.66 17.67 -11.32 17.34 -12 17 C-10.20606896 9.82427584 -6.01903188 4.20811103 0 0 Z " fill="#94A5DD" transform="translate(67,134)"/>
<path d="M0 0 C6.75 1.125 6.75 1.125 9 4 C6 4 6 4 2 3 C2 7.95 2 12.9 2 18 C1.34 17.67 0.68 17.34 0 17 C0 11.39 0 5.78 0 0 Z " fill="#8FA1D6" transform="translate(98,131)"/>
<path d="M0 0 C0.66 0 1.32 0 2 0 C2.4125 0.7425 2.825 1.485 3.25 2.25 C6.05237761 6.65373625 10.33912891 8.84882873 15 11 C13.375 11.75 13.375 11.75 11 12 C6.63204812 9.54302707 1.89625705 6.68877116 0.25 1.75 C0.1675 1.1725 0.085 0.595 0 0 Z " fill="#8EA4E0" transform="translate(60,102)"/>
<path d="M0 0 C0.99 0.33 1.98 0.66 3 1 C1.76075855 5.95696581 0.21422242 8.11658466 -4 11 C-4.66 10.67 -5.32 10.34 -6 10 C-5.38125 9.278125 -4.7625 8.55625 -4.125 7.8125 C-2.16333647 5.21618062 -1.04684 3.05328334 0 0 Z " fill="#8DA0D9" transform="translate(104,166)"/>
<path d="M0 0 C5.27357122 0.25935596 5.27357122 0.25935596 8 1 C10.0625 3.3125 10.0625 3.3125 11 6 C10.6875 8.3125 10.6875 8.3125 10 10 C9.649375 9.2575 9.29875 8.515 8.9375 7.75 C6.39567494 4.1422483 3.90808039 2.99090888 0 1 C0 0.67 0 0.34 0 0 Z " fill="#8A9FD9" transform="translate(93,66)"/>
<path d="M0 0 C3.74281699 2.38179263 6.97727468 4.74475735 10 8 C9.67 8.99 9.34 9.98 9 11 C7.5 9.625 7.5 9.625 6 8 C6 7.34 6 6.68 6 6 C5.401875 5.731875 4.80375 5.46375 4.1875 5.1875 C2.02775192 4.01506533 0.64209744 2.80630718 -1 1 C-0.67 0.67 -0.34 0.34 0 0 Z " fill="#93AAE3" transform="translate(104,54)"/>
<path d="M0 0 C2.9375 0.8125 2.9375 0.8125 6 2 C6.33 2.99 6.66 3.98 7 5 C7.66 5 8.32 5 9 5 C9 5.66 9 6.32 9 7 C9.66 7 10.32 7 11 7 C10.67 7.66 10.34 8.32 10 9 C5.82117329 6.43571997 2.87494471 3.98069267 0 0 Z " fill="#92A7E5" transform="translate(136,104)"/>
<path d="M0 0 C0.99 0 1.98 0 3 0 C3.96661363 3.12180401 3.98988909 5.52083795 3.5625 8.75 C3.40974609 9.94882813 3.40974609 9.94882813 3.25390625 11.171875 C3.12822266 12.07679687 3.12822266 12.07679687 3 13 C2.67 13 2.34 13 2 13 C1.67 10.69 1.34 8.38 1 6 C0.67 6 0.34 6 0 6 C0 4.02 0 2.04 0 0 Z " fill="#8EA8E7" transform="translate(104,74)"/>
<path d="M0 0 C1.5 1.125 1.5 1.125 3 3 C3.1875 6 3.1875 6 3 9 C3 9.99 3 10.98 3 12 C2.34 12 1.68 12 1 12 C0.855625 10.88625 0.71125 9.7725 0.5625 8.625 C0.21627965 5.17857953 0.21627965 5.17857953 -1 3 C-0.67 2.01 -0.34 1.02 0 0 Z " fill="#90A6ED" transform="translate(180,154)"/>
<path d="M0 0 C4.74918662 0.46560653 8.10782405 1.16932658 12 4 C12 4.33 12 4.66 12 5 C10.35 5 8.7 5 7 5 C7 4.34 7 3.68 7 3 C5.68 3 4.36 3 3 3 C3 2.34 3 1.68 3 1 C2.01 0.67 1.02 0.34 0 0 Z " fill="#8BA4DB" transform="translate(92,50)"/>
<path d="M0 0 C-0.33 0.99 -0.66 1.98 -1 3 C-4.69541586 3.95024979 -7.30458414 3.95024979 -11 3 C-7.48550811 -0.37391222 -4.73940561 -0.27342725 0 0 Z " fill="#8FA2F0" transform="translate(171,179)"/>
<path d="M0 0 C3.3309303 -0.37010337 4.62731223 -0.27461204 7.375 1.75 C9 4 9 4 8.75 6.25 C8.5025 6.8275 8.255 7.405 8 8 C7.4225 7.236875 6.845 6.47375 6.25 5.6875 C4.28296907 3.33799083 2.51523256 1.70676495 0 0 Z " fill="#8FA4DC" transform="translate(169,145)"/>
<path d="M0 0 C-2.43414237 1.62276158 -4.31319446 2.61744792 -7 3.625 C-8.0209375 4.01558594 -8.0209375 4.01558594 -9.0625 4.4140625 C-11 5 -11 5 -14 5 C-10.7547422 0.1321133 -5.61593946 -0.34035997 0 0 Z " fill="#8DA2D8" transform="translate(163,64)"/>
<path d="M0 0 C0.66 0.33 1.32 0.66 2 1 C1.5359375 1.8353125 1.5359375 1.8353125 1.0625 2.6875 C-0.05761821 5.12540433 -0.56037364 7.36224186 -1 10 C-1.66 10 -2.32 10 -3 10 C-3.36923077 4.58461538 -3.36923077 4.58461538 -1.5 1.625 C-1.005 1.08875 -0.51 0.5525 0 0 Z " fill="#8FA4E3" transform="translate(135,63)"/>
<path d="M0 0 C0.33 0.66 0.66 1.32 1 2 C1.99 2.33 2.98 2.66 4 3 C3.360625 3.12375 2.72125 3.2475 2.0625 3.375 C1.381875 3.58125 0.70125 3.7875 0 4 C-0.33 4.66 -0.66 5.32 -1 6 C-2.32 5.34 -3.64 4.68 -5 4 C-5 3.34 -5 2.68 -5 2 C-3.35 2 -1.7 2 0 2 C0 1.34 0 0.68 0 0 Z " fill="#8DA8EE" transform="translate(166,49)"/>
<path d="M0 0 C-1.26239712 0.86658615 -2.53527501 1.71792059 -3.8125 2.5625 C-4.87404297 3.27599609 -4.87404297 3.27599609 -5.95703125 4.00390625 C-8 5 -8 5 -11 4 C-10.360625 3.71125 -9.72125 3.4225 -9.0625 3.125 C-6.84793921 2.17176549 -6.84793921 2.17176549 -6 0 C-3 -1 -3 -1 0 0 Z " fill="#90A6DE" transform="translate(109,110)"/>
<path d="M0 0 C0.66 0.33 1.32 0.66 2 1 C0.88671875 2.51953125 0.88671875 2.51953125 -1 4 C-3.91796875 4.07421875 -3.91796875 4.07421875 -7.1875 3.6875 C-8.27417969 3.56761719 -9.36085937 3.44773437 -10.48046875 3.32421875 C-11.31191406 3.21722656 -12.14335937 3.11023438 -13 3 C-13 2.67 -13 2.34 -13 2 C-12.22914063 1.93941406 -11.45828125 1.87882812 -10.6640625 1.81640625 C-9.15972656 1.69072266 -9.15972656 1.69072266 -7.625 1.5625 C-6.62726563 1.48128906 -5.62953125 1.40007812 -4.6015625 1.31640625 C-2.02072387 1.15034374 -2.02072387 1.15034374 0 0 Z " fill="#89A0D8" transform="translate(170,99)"/>
<path d="M0 0 C0.66 0.99 1.32 1.98 2 3 C2.66 2.67 3.32 2.34 4 2 C4.33 3.32 4.66 4.64 5 6 C3.33333333 6 1.66666667 6 0 6 C0 5.34 0 4.68 0 4 C-0.66 4 -1.32 4 -2 4 C-1.34 2.68 -0.68 1.36 0 0 Z " fill="#8098DD" transform="translate(67,88)"/>
<path d="M0 0 C0.66 0 1.32 0 2 0 C1.690625 0.598125 1.38125 1.19625 1.0625 1.8125 C-0.10209704 4.08956772 -0.10209704 4.08956772 -1 7 C-2.65 7 -4.3 7 -6 7 C-5.04882866 5.8274869 -4.08882991 4.66212985 -3.125 3.5 C-2.59132812 2.8503125 -2.05765625 2.200625 -1.5078125 1.53125 C-0.76144531 0.77328125 -0.76144531 0.77328125 0 0 Z " fill="#93A4DD" transform="translate(177,171)"/>
<path d="M0 0 C0.33 0 0.66 0 1 0 C1 3.96 1 7.92 1 12 C0.01 12.33 -0.98 12.66 -2 13 C-1.34 8.71 -0.68 4.42 0 0 Z " fill="#8695CC" transform="translate(180,158)"/>
<path d="M0 0 C0.66 0.33 1.32 0.66 2 1 C-0.39509338 3.89932357 -2.31245243 4.50168276 -6 5 C-6.33 4.34 -6.66 3.68 -7 3 C-4.69631264 1.93347808 -2.35981813 0.93578995 0 0 Z " fill="#8BA3DF" transform="translate(72,54)"/>
</svg>
