<?xml version="1.0" standalone="no"?>
<!DOCTYPE svg PUBLIC "-//W3C//DTD SVG 20010904//EN"
 "http://www.w3.org/TR/2001/REC-SVG-20010904/DTD/svg10.dtd">
<svg version="1.0" xmlns="http://www.w3.org/2000/svg"
 width="660.000000pt" height="414.000000pt" viewBox="0 0 660.000000 414.000000"
 preserveAspectRatio="xMidYMid meet">

<g transform="translate(0.000000,414.000000) scale(0.100000,-0.100000)"
fill="#000000" stroke="none">
<path d="M0 2070 l0 -2070 3300 0 3300 0 0 2070 0 2070 -3300 0 -3300 0 0
-2070z m3266 2002 c5 -5 25 -15 44 -22 19 -8 63 -26 98 -42 34 -15 65 -28 67
-28 2 0 34 -13 70 -30 36 -16 68 -30 70 -30 2 0 34 -13 70 -30 36 -16 68 -30
70 -30 3 0 27 -10 53 -21 26 -12 61 -27 77 -34 55 -23 100 -42 147 -64 26 -11
50 -21 53 -21 2 0 34 -13 70 -30 36 -16 68 -30 70 -30 2 0 34 -13 70 -30 36
-16 68 -30 70 -30 3 0 27 -10 53 -21 26 -12 63 -28 82 -36 80 -35 107 -46 135
-58 53 -22 99 -42 147 -64 26 -11 50 -21 53 -21 2 0 34 -13 70 -30 36 -16 68
-30 70 -30 2 0 34 -13 70 -30 36 -16 68 -30 70 -30 2 0 34 -13 70 -30 36 -16
68 -30 70 -30 3 0 25 -9 50 -20 25 -11 65 -29 90 -40 25 -11 47 -20 50 -20 2
0 34 -13 70 -30 36 -16 68 -30 70 -30 2 0 34 -13 70 -30 36 -16 68 -30 70 -30
2 0 34 -13 70 -30 36 -16 68 -30 70 -30 5 0 25 -9 137 -59 26 -11 50 -21 53
-21 2 0 34 -13 70 -30 36 -16 68 -30 70 -30 2 0 33 -13 67 -28 35 -16 78 -35
96 -43 17 -8 32 -16 32 -19 0 -5 -22 -16 -95 -46 -39 -16 -73 -30 -137 -58
-18 -8 -58 -24 -88 -36 -30 -12 -70 -28 -87 -36 -18 -8 -48 -20 -65 -28 -18
-8 -58 -24 -88 -36 -57 -22 -82 -33 -162 -69 -26 -11 -50 -21 -53 -21 -3 0
-27 -9 -53 -21 -26 -12 -56 -25 -67 -29 -11 -4 -41 -17 -67 -29 -26 -12 -50
-21 -53 -21 -3 0 -27 -10 -53 -21 -80 -36 -105 -47 -162 -69 -30 -12 -70 -28
-87 -36 -18 -8 -48 -20 -65 -28 -18 -8 -58 -24 -88 -36 -57 -22 -82 -33 -162
-69 -26 -11 -50 -21 -53 -21 -3 0 -27 -9 -53 -21 -26 -12 -56 -25 -67 -29 -11
-4 -41 -17 -67 -29 -26 -12 -50 -21 -53 -21 -3 0 -27 -10 -53 -21 -80 -36
-105 -47 -162 -69 -57 -22 -82 -33 -162 -69 -26 -11 -50 -21 -53 -21 -3 0 -27
-9 -53 -21 -26 -12 -56 -25 -67 -29 -11 -4 -41 -17 -67 -29 -26 -12 -50 -21
-53 -21 -3 0 -27 -9 -53 -21 -26 -12 -56 -25 -67 -29 -11 -4 -41 -17 -67 -29
-26 -12 -50 -21 -53 -21 -3 0 -27 -10 -53 -21 -79 -36 -104 -46 -177 -75 -38
-15 -75 -31 -81 -36 -11 -8 -77 16 -192 68 -29 13 -55 24 -57 24 -3 0 -27 10
-53 21 -47 22 -92 41 -147 64 -16 7 -51 22 -77 34 -26 11 -50 21 -53 21 -2 0
-34 14 -70 30 -36 16 -68 30 -70 30 -2 0 -34 14 -70 30 -36 17 -68 30 -70 30
-2 0 -34 14 -70 30 -36 17 -68 30 -70 30 -3 0 -27 10 -53 21 -26 12 -62 28
-79 35 -18 8 -48 20 -65 28 -18 7 -54 23 -80 35 -26 11 -50 21 -53 21 -2 0
-34 13 -70 30 -36 16 -68 30 -70 30 -2 0 -28 11 -57 24 -29 13 -82 36 -118 52
-110 48 -165 79 -165 94 0 23 130 125 209 164 83 41 133 58 251 87 184 45 607
53 960 19 61 -5 158 -13 216 -16 l106 -6 31 38 c37 44 39 72 13 130 -27 58
-74 91 -141 97 -485 47 -989 24 -1177 -54 -134 -55 -204 -88 -247 -118 -24
-17 -47 -31 -50 -31 -3 0 -49 -33 -103 -74 -179 -134 -339 -320 -448 -520 -34
-63 -37 -72 -26 -101 23 -64 13 -119 -33 -172 -20 -24 -20 -18 5 -188 5 -38
14 -101 19 -140 5 -38 14 -104 20 -145 24 -167 32 -237 34 -270 l1 -35 -193
-3 c-178 -2 -192 -1 -192 15 1 21 16 132 30 218 10 62 25 160 40 255 5 30 13
84 19 120 25 156 25 150 5 173 -33 38 -44 65 -44 105 0 67 29 107 105 148 11
6 43 55 70 110 28 54 76 145 108 201 31 55 57 106 57 112 0 9 -118 71 -135 71
-3 0 -25 9 -50 20 -25 11 -65 29 -90 40 -25 11 -47 20 -50 20 -2 0 -34 14 -70
30 -36 17 -68 30 -70 30 -2 0 -34 14 -70 30 -36 17 -68 30 -70 30 -3 0 -27 10
-53 21 -26 12 -62 28 -79 35 -18 8 -48 20 -65 28 -18 7 -53 23 -78 33 -25 11
-60 26 -78 34 -17 8 -32 16 -32 19 0 3 26 16 58 29 72 31 135 58 189 82 24 11
45 19 48 19 3 0 27 9 53 21 26 12 56 25 67 29 11 4 41 17 67 29 26 12 50 21
53 21 3 0 25 9 50 20 25 11 65 29 90 40 25 11 47 20 50 20 3 0 27 10 53 21 80
36 105 47 162 69 57 22 82 33 162 69 26 11 50 21 53 21 5 0 24 8 137 59 26 11
50 21 53 21 3 0 27 10 53 21 80 36 105 47 162 69 57 22 82 33 162 69 26 11 50
21 53 21 3 0 27 10 53 21 80 36 105 47 162 69 57 22 82 33 162 69 26 11 50 21
53 21 3 0 27 10 53 21 113 51 132 59 137 59 3 0 27 9 53 21 26 12 56 25 67 29
11 4 41 17 67 29 26 12 50 21 53 21 3 0 25 9 50 20 25 11 65 29 90 40 25 11
47 20 50 20 5 0 46 18 120 51 35 16 210 87 216 88 3 1 9 -3 15 -7z m-1608
-2261 c25 -14 111 -51 117 -51 2 0 34 -13 70 -30 36 -16 68 -30 70 -30 2 0 34
-13 70 -30 36 -16 68 -30 70 -30 2 0 34 -13 70 -30 36 -16 68 -30 70 -30 2 0
34 -13 70 -30 36 -16 68 -30 70 -30 2 0 30 -12 62 -26 65 -30 129 -57 233
-101 41 -17 45 -19 170 -74 272 -118 378 -162 410 -166 34 -5 113 21 236 77
22 11 65 28 94 40 29 12 72 29 94 40 23 10 77 33 121 50 44 17 98 40 121 50
22 11 65 28 94 40 29 12 72 29 94 40 23 10 77 33 121 50 44 17 98 40 121 50
22 11 65 29 95 40 52 21 74 30 149 63 19 9 60 25 90 37 57 22 82 33 162 69 85
38 78 82 78 -477 l0 -498 -82 -80 c-173 -168 -396 -324 -623 -434 -82 -40
-159 -76 -170 -81 -128 -48 -237 -83 -290 -93 -16 -3 -52 -10 -79 -16 -191
-39 -479 -53 -625 -29 -322 52 -498 107 -736 230 -234 120 -405 243 -592 423
l-83 80 0 491 c0 271 3 495 7 498 9 10 30 9 51 -2z"/>
</g>
</svg>
